<svg width="960" height="640" viewBox="0 0 960 640" fill="none" xmlns="http://www.w3.org/2000/svg">
  <rect width="960" height="640" rx="40" fill="#0B0B0F"/>
  <rect x="48" y="48" width="864" height="544" rx="32" fill="#111827"/>
  <rect x="88" y="88" width="784" height="64" rx="24" fill="#0F172A"/>
  <rect x="120" y="112" width="188" height="16" rx="8" fill="#E5E7EB"/>
  <circle cx="806" cy="120" r="16" fill="#6366F1"/>
  <rect x="88" y="184" width="236" height="360" rx="24" fill="#0F172A"/>
  <rect x="356" y="184" width="516" height="168" rx="24" fill="url(#paint0_linear_0_1)"/>
  <rect x="390" y="220" width="200" height="18" rx="9" fill="#E5E7EB"/>
  <rect x="390" y="254" width="280" height="12" rx="6" fill="#C7D2FE"/>
  <rect x="356" y="376" width="244" height="168" rx="24" fill="#0F172A"/>
  <rect x="628" y="376" width="244" height="168" rx="24" fill="#0F172A"/>
  <rect x="120" y="222" width="120" height="12" rx="6" fill="#9CA3AF"/>
  <rect x="120" y="258" width="172" height="18" rx="9" fill="#E5E7EB"/>
  <rect x="120" y="298" width="148" height="12" rx="6" fill="#9CA3AF"/>
  <rect x="390" y="412" width="146" height="18" rx="9" fill="#E5E7EB"/>
  <rect x="390" y="448" width="122" height="12" rx="6" fill="#9CA3AF"/>
  <rect x="662" y="412" width="146" height="18" rx="9" fill="#E5E7EB"/>
  <rect x="662" y="448" width="122" height="12" rx="6" fill="#9CA3AF"/>
  <defs>
    <linearGradient id="paint0_linear_0_1" x1="356" y1="184" x2="872" y2="352" gradientUnits="userSpaceOnUse">
      <stop stop-color="#312E81"/>
      <stop offset="1" stop-color="#22D3EE"/>
    </linearGradient>
  </defs>
</svg>
