<svg width="960" height="640" viewBox="0 0 960 640" fill="none" xmlns="http://www.w3.org/2000/svg">
  <rect width="960" height="640" rx="40" fill="#0B0B0F"/>
  <rect x="48" y="48" width="864" height="544" rx="32" fill="#111827"/>
  <rect x="88" y="88" width="784" height="64" rx="20" fill="#0F172A"/>
  <rect x="120" y="112" width="184" height="16" rx="8" fill="#E5E7EB"/>
  <rect x="88" y="184" width="360" height="312" rx="28" fill="url(#paint0_linear_0_1)"/>
  <rect x="480" y="184" width="392" height="132" rx="24" fill="#0F172A"/>
  <rect x="512" y="218" width="168" height="18" rx="9" fill="#E5E7EB"/>
  <rect x="512" y="252" width="236" height="12" rx="6" fill="#9CA3AF"/>
  <rect x="480" y="340" width="392" height="156" rx="24" fill="#0F172A"/>
  <rect x="512" y="378" width="212" height="18" rx="9" fill="#E5E7EB"/>
  <rect x="512" y="412" width="260" height="12" rx="6" fill="#9CA3AF"/>
  <rect x="512" y="442" width="232" height="12" rx="6" fill="#9CA3AF"/>
  <rect x="88" y="528" width="784" height="20" rx="10" fill="#1F2937"/>
  <defs>
    <linearGradient id="paint0_linear_0_1" x1="88" y1="184" x2="448" y2="496" gradientUnits="userSpaceOnUse">
      <stop stop-color="#6366F1"/>
      <stop offset="1" stop-color="#22D3EE"/>
    </linearGradient>
  </defs>
</svg>
