<svg width="960" height="640" viewBox="0 0 960 640" fill="none" xmlns="http://www.w3.org/2000/svg">
  <rect width="960" height="640" rx="40" fill="#0B0B0F"/>
  <rect x="42" y="42" width="876" height="556" rx="30" fill="#111827"/>
  <rect x="82" y="82" width="796" height="476" rx="28" fill="#0F172A"/>
  <rect x="118" y="118" width="280" height="160" rx="26" fill="url(#paint0_linear_0_1)"/>
  <rect x="430" y="118" width="412" height="26" rx="13" fill="#E5E7EB"/>
  <rect x="430" y="162" width="270" height="16" rx="8" fill="#9CA3AF"/>
  <rect x="430" y="206" width="320" height="16" rx="8" fill="#9CA3AF"/>
  <rect x="118" y="318" width="724" height="26" rx="13" fill="#E5E7EB"/>
  <rect x="118" y="366" width="664" height="16" rx="8" fill="#9CA3AF"/>
  <rect x="118" y="404" width="690" height="16" rx="8" fill="#9CA3AF"/>
  <rect x="118" y="450" width="140" height="42" rx="21" fill="#6366F1"/>
  <rect x="278" y="450" width="120" height="42" rx="21" fill="#22D3EE"/>
  <circle cx="780" cy="478" r="36" fill="#111827" stroke="#22D3EE" stroke-width="10"/>
  <path d="M770 478L780 488L796 470" stroke="#22D3EE" stroke-width="10" stroke-linecap="round" stroke-linejoin="round"/>
  <defs>
    <linearGradient id="paint0_linear_0_1" x1="118" y1="118" x2="398" y2="278" gradientUnits="userSpaceOnUse">
      <stop stop-color="#6366F1"/>
      <stop offset="1" stop-color="#22D3EE"/>
    </linearGradient>
  </defs>
</svg>
